# xmcd
#
# Track frame offsets:
#	150
#	18833
#	35654
#	52569
#	68908
#	85851
#	100806
#	117117
#	134947
#	154013
#	173869
#	193610
#	209991
#	227433
#	244595
#	258317
#	276615
#	302367
#	317139
#	337738
#
# Disc length: 4740 seconds
#
# Revision: 0
# Processed by: cddbd v1.4PL0 Copyright (c) Steve Scherf et al.
# Submitted via: dBpowerAMP V4.0
#
DISCID=14128214
DTITLE=Patricia Kaas - Pop Collection
DYEAR=2002
DGENRE=Blues
TTITLE0=Mon Mec a Moi
TTITLE1=Where Do I Begin
TTITLE2=Modemoiselle Chante Le Blues
TTITLE3=My Man
TTITLE4=Venus Des Abribus
TTITLE5=Un Homme Et Une Femme
TTITLE6=Les Hommes Qui Passent
TTITLE7=Elle Voulalt Jouer Cabaret
TTITLE8=Des Mensonges En Musique
TTITLE9=If You Go Away
TTITLE10=D'Allemange
TTITLE11=Quand Jimmy Dit
TTITLE12=The Summer Knows
TTITLE13=Les Mannequins D'osier
TTITLE14=L'enterrement De S.Bechet
TTITLE15=Autumn Leaves
TTITLE16=Ma Liberte Contre La Tienne
TTITLE17=And Now... Ladies And Gentlemen
TTITLE18=Quand Je T'obile
TTITLE19=What Now My Love
EXTD=
EXTT0=
EXTT1=
EXTT2=
EXTT3=
EXTT4=
EXTT5=
EXTT6=
EXTT7=
EXTT8=
EXTT9=
EXTT10=
EXTT11=
EXTT12=
EXTT13=
EXTT14=
EXTT15=
EXTT16=
EXTT17=
EXTT18=
EXTT19=
PLAYORDER=
